<svg width="228" height="196" viewBox="0 0 228 196" fill="none" xmlns="http://www.w3.org/2000/svg">
<path d="M171.377 147.785C170.715 147.785 170.065 147.608 169.495 147.272C168.925 146.935 168.456 146.452 168.137 145.873L163.972 138.349C163.654 137.772 163.495 137.12 163.514 136.462C163.532 135.803 163.726 135.162 164.076 134.603C164.426 134.045 164.919 133.59 165.504 133.285C166.09 132.981 166.746 132.838 167.405 132.871L174.966 133.257C175.66 133.296 176.33 133.527 176.899 133.925C177.469 134.323 177.916 134.872 178.189 135.509L180.397 140.72C180.595 141.187 180.694 141.689 180.689 142.196C180.685 142.702 180.575 143.203 180.369 143.665C180.162 144.128 179.862 144.544 179.488 144.886C179.114 145.229 178.673 145.491 178.193 145.656L172.593 147.584C172.204 147.72 171.793 147.79 171.38 147.789L171.377 147.785Z" fill="#090814"/>
<path d="M183.322 193.072L188.237 192.014L186.476 172.606L179.23 174.168L183.322 193.072Z" fill="#9F616A"/>
<path d="M200.127 189.335C200.338 189.559 200.598 190.371 200.662 190.672C200.71 190.89 200.714 191.116 200.674 191.336C200.634 191.556 200.551 191.766 200.429 191.954C200.308 192.142 200.15 192.304 199.966 192.43C199.782 192.557 199.574 192.646 199.355 192.693L184.144 195.973C183.843 196.038 183.528 195.98 183.268 195.814C183.008 195.647 182.825 195.384 182.759 195.084L182.622 194.449C182.622 194.449 181.456 192.711 182.499 190.038C182.499 190.038 184.821 191.457 187.075 187.962L187.592 186.246L194.705 189.403L198.198 189.088C198.961 189.02 199.601 188.769 200.122 189.335H200.127L200.127 189.335Z" fill="#090814"/>
<path d="M192.109 191.589L196.205 188.688L186.938 171.534L180.89 175.813L192.109 191.589Z" fill="#9F616A"/>
<path d="M206.085 181.552C206.479 181.831 206.822 182.175 207.1 182.57C207.362 182.938 207.466 183.394 207.391 183.839C207.315 184.284 207.066 184.68 206.697 184.942L194.006 193.929C193.754 194.106 193.442 194.177 193.138 194.126C192.834 194.075 192.563 193.906 192.383 193.655L192.008 193.126C192.008 193.126 190.253 191.986 190.156 189.116C190.156 189.116 192.849 189.509 193.547 185.411L193.346 183.632L201.132 183.742L204.222 182.081C204.899 181.716 205.388 181.237 206.088 181.552L206.085 181.552Z" fill="#090814"/>
<path d="M138.501 103.674C138.501 103.674 131.631 112.996 145.372 123.479L173.433 114.531L163.409 93.6714L154.533 88.8135L138.498 103.67L138.501 103.674Z" fill="#090814"/>
<path d="M173.437 114.535L184.316 135.678L191.191 179.686L182.602 180.256L174.009 138.537L158.833 115.963L169.429 111.105" fill="#090814"/>
<path d="M145.376 116.841V123.483L164.848 144.823C164.848 144.823 164.848 160.824 172.294 168.255L180.883 181.401L188.329 177.402L177.45 139.112L157.978 113.965L145.381 116.841H145.377H145.376Z" fill="#090814"/>
<path d="M159.211 50.9924L155.542 64.9465L141.559 62.2017C141.559 62.2017 151.316 52.1621 149.943 47.5869L159.214 50.9924H159.21H159.211Z" fill="#9F616A"/>
<path d="M148.525 53.0977L157.114 57.0981C157.114 57.0981 161.534 59.7937 161.617 61.5917C161.7 63.3897 161.124 71.96 161.124 71.96C161.124 71.96 164.561 75.3902 162.271 82.2461L163.418 93.6769L137.646 107.391L139.936 83.3883L138.789 61.1008L148.525 53.0999L148.525 53.0977Z" fill="#E29578"/>
<path d="M140.816 118.138C141.823 120.439 143.83 121.789 145.298 121.149C146.766 120.509 147.14 118.125 146.137 115.823C145.748 114.897 145.142 114.078 144.37 113.434L139.983 103.731L135.464 105.881L140.265 115.22C140.212 116.222 140.401 117.222 140.816 118.137V118.138Z" fill="#9F616A"/>
<path d="M145.376 62.53C145.376 62.53 139.077 58.5296 136.787 63.1002C134.496 67.6709 129.341 91.1022 129.341 91.1022L136.787 113.39L143.657 110.534L137.642 86.5489L145.372 62.53H145.376Z" fill="#E29578"/>
<path d="M177.664 114.54C179.448 116.312 181.812 116.829 182.943 115.693C184.074 114.556 183.539 112.205 181.755 110.432C181.051 109.715 180.186 109.176 179.231 108.861L171.571 101.451L168.162 105.111L176.074 112.024C176.395 112.976 176.94 113.837 177.665 114.535L177.664 114.54Z" fill="#9F616A"/>
<path d="M161.374 61.1638C161.374 61.1638 150.392 60.7172 149.948 65.8081C149.504 70.8989 157.016 93.6229 157.016 93.6229L172.167 111.606L177.5 106.424L163.056 86.3359L161.378 61.1638H161.374Z" fill="#E29578"/>
<path d="M165.181 43.5333C165.181 45.4168 164.621 47.2579 163.573 48.824C162.524 50.3901 161.034 51.6106 159.29 52.3314C157.546 53.0522 155.628 53.2408 153.776 52.8733C151.925 52.5059 150.225 51.5989 148.89 50.2671C147.556 48.9353 146.647 47.2384 146.279 45.3911C145.91 43.5438 146.099 41.6291 146.822 39.889C147.544 38.1489 148.767 36.6616 150.336 35.6152C151.906 34.5688 153.751 34.0103 155.638 34.0103C156.891 34.0101 158.132 34.2564 159.29 34.7349C160.448 35.2135 161.5 35.9149 162.386 36.7992C163.273 37.6836 163.975 38.7334 164.455 39.8888C164.935 41.0443 165.181 42.2827 165.181 43.5333Z" fill="#9F616A"/>
<path d="M154.878 30.7321C155.153 30.8922 155.523 30.6499 155.613 30.3422C155.67 30.026 155.63 29.7003 155.499 29.4068C155.327 28.898 155.157 28.3934 154.986 27.8846C154.62 26.8056 154.234 25.6896 153.445 24.8699C152.25 23.6299 150.351 23.3139 148.645 23.5437C146.453 23.8392 144.29 25.0209 143.271 26.9819C142.251 28.9429 142.687 31.6746 144.529 32.8976C141.902 35.9009 140.989 39.2489 141.133 43.2289C141.277 47.2088 145.627 50.8768 148.464 53.6833C149.097 53.3017 149.673 51.5048 149.323 50.8524C148.974 50.1999 149.475 49.4451 149.044 48.8419C148.612 48.2387 148.25 49.1988 148.686 48.5999C148.962 48.2225 147.888 47.3567 148.295 47.1309C150.273 46.0396 150.931 43.5778 152.171 41.6945C152.931 40.5598 153.933 39.6068 155.105 38.9037C156.277 38.2006 157.59 37.7648 158.951 37.6275C160.448 37.4879 162.026 37.7413 163.252 38.6081C164.477 39.475 165.27 41.0207 164.987 42.4937C165.357 42.1192 165.636 41.6653 165.804 41.1665C165.971 40.6678 166.022 40.1374 165.953 39.616C165.883 39.0946 165.695 38.5959 165.403 38.1581C165.111 37.7203 164.722 37.355 164.267 37.09C164.533 36.1757 164.563 35.2091 164.353 34.2803C164.143 33.3515 163.701 32.491 163.068 31.779C161.789 30.3717 156.605 30.6129 154.738 30.9827L154.88 30.7364L154.876 30.7324L154.878 30.7321Z" fill="#090814"/>
<path d="M154.59 37.6825C152.119 37.9493 150.335 40.0869 148.826 42.0604C147.958 43.198 147.045 44.4525 147.07 45.8842C147.091 47.3284 148.061 48.5716 148.525 49.9378C148.887 51.0676 148.911 52.2777 148.594 53.4208C148.278 54.5638 147.636 55.5904 146.745 56.3754C147.642 56.5108 148.558 56.2985 149.303 55.782C150.048 55.2655 150.568 54.4839 150.754 53.5976C151.112 51.5257 149.537 49.5235 149.722 47.426C149.886 45.5796 151.346 44.1602 152.584 42.7774C153.821 41.3946 154.989 39.5636 154.417 37.8003L154.59 37.6814V37.6825Z" fill="#090814"/>
<path d="M215.72 195.512C215.72 195.576 215.708 195.639 215.683 195.699C215.659 195.758 215.623 195.812 215.577 195.857C215.532 195.903 215.478 195.939 215.418 195.963C215.359 195.988 215.295 196 215.231 196H0.489359C0.424122 196.002 0.359229 195.99 0.298499 195.966C0.237769 195.942 0.182427 195.907 0.135731 195.861C0.0890352 195.816 0.0519277 195.761 0.0265922 195.701C0.00125669 195.641 -0.011795 195.577 -0.011795 195.512C-0.011795 195.447 0.00125669 195.382 0.0265922 195.322C0.0519277 195.262 0.0890352 195.208 0.135731 195.162C0.182427 195.117 0.237769 195.081 0.298499 195.057C0.359229 195.033 0.424122 195.022 0.489359 195.024H215.232C215.296 195.024 215.36 195.036 215.419 195.061C215.478 195.085 215.532 195.121 215.578 195.166C215.623 195.212 215.659 195.266 215.683 195.325C215.708 195.384 215.72 195.448 215.72 195.512Z" fill="#F2F2F2"/>
<path d="M126.412 107.585H63.2392C59.799 107.585 56.4998 108.949 54.0672 111.376C51.6346 113.804 50.268 117.096 50.268 120.529V181.659C50.268 183.359 50.6035 185.042 51.2554 186.612C51.9073 188.183 52.8627 189.61 54.0672 190.812C55.2717 192.014 56.7016 192.967 58.2754 193.618C59.8491 194.268 61.5358 194.603 63.2392 194.603H126.412C129.852 194.603 133.151 193.239 135.584 190.812C138.017 188.384 139.383 185.092 139.383 181.659V120.529C139.383 117.096 138.017 113.804 135.584 111.376C133.151 108.949 129.852 107.585 126.412 107.585Z" fill="white"/>
<path d="M126.506 195.023H63.3327C59.8123 195.019 56.4372 193.622 53.9479 191.137C51.4585 188.653 50.0583 185.285 50.0543 181.772V120.643C50.0583 117.129 51.4585 113.761 53.9479 111.277C56.4372 108.793 59.8123 107.396 63.3327 107.392H126.506C130.026 107.396 133.401 108.793 135.891 111.277C138.38 113.761 139.78 117.129 139.784 120.643V181.772C139.78 185.285 138.38 188.653 135.891 191.137C133.401 193.622 130.026 195.019 126.506 195.023ZM63.3327 108.005C59.9751 108.009 56.7561 109.341 54.3819 111.711C52.0077 114.08 50.6722 117.292 50.6685 120.643V181.772C50.6722 185.123 52.0077 188.335 54.3819 190.704C56.7561 193.073 59.9751 194.406 63.3327 194.41H126.506C129.863 194.406 133.082 193.073 135.457 190.704C137.831 188.335 139.166 185.123 139.17 181.772V120.643C139.166 117.292 137.831 114.08 135.457 111.71C133.082 109.341 129.863 108.009 126.506 108.005L63.3327 108.005Z" fill="#090814"/>
<path d="M63.4689 113.712C64.278 113.712 64.9338 113.057 64.9338 112.25C64.9338 111.443 64.278 110.788 63.4689 110.788C62.6599 110.788 62.004 111.443 62.004 112.25C62.004 113.057 62.6599 113.712 63.4689 113.712Z" fill="#3F3D56"/>
<path d="M67.4977 113.712C68.3067 113.712 68.9626 113.057 68.9626 112.25C68.9626 111.443 68.3067 110.788 67.4977 110.788C66.6887 110.788 66.0328 111.443 66.0328 112.25C66.0328 113.057 66.6887 113.712 67.4977 113.712Z" fill="#3F3D56"/>
<path d="M71.5259 113.712C72.3349 113.712 72.9908 113.057 72.9908 112.25C72.9908 111.443 72.3349 110.788 71.5259 110.788C70.7168 110.788 70.061 111.443 70.061 112.25C70.061 113.057 70.7168 113.712 71.5259 113.712Z" fill="#3F3D56"/>
<path d="M125.893 181.857H67.9469C67.4017 181.857 66.8788 181.641 66.4933 181.256C66.1077 180.871 65.8912 180.349 65.8912 179.805C65.8912 179.261 66.1077 178.739 66.4933 178.355C66.8788 177.97 67.4017 177.754 67.9469 177.754H125.893C126.438 177.754 126.961 177.97 127.347 178.355C127.732 178.739 127.949 179.261 127.949 179.805C127.949 180.349 127.732 180.871 127.347 181.256C126.961 181.641 126.438 181.857 125.893 181.857Z" fill="#E6E6E6"/>
<path d="M105.623 181.849H63.6736C62.751 181.849 62.0029 180.931 62.0029 179.798C62.0029 178.664 62.7507 177.746 63.6736 177.746H105.623C106.546 177.746 107.294 178.664 107.294 179.798C107.294 180.931 106.546 181.849 105.623 181.849Z" fill="#E29578"/>
<path d="M94.9232 165.21C92.4933 165.21 90.1383 164.371 88.2574 162.835C86.3765 161.3 85.0854 159.163 84.6029 156.786C84.1205 154.41 84.4764 151.94 85.6102 149.795C86.7441 147.65 88.5862 145.963 90.8244 145.019C92.1212 144.471 93.5153 144.191 94.9232 144.194C95.0597 144.192 95.1952 144.217 95.3219 144.267C95.4486 144.318 95.5639 144.393 95.6612 144.488C95.7585 144.584 95.8357 144.698 95.8885 144.823C95.9412 144.949 95.9684 145.084 95.9684 145.22C95.9684 145.356 95.9412 145.491 95.8885 145.616C95.8357 145.742 95.7585 145.856 95.6612 145.951C95.5639 146.047 95.4486 146.122 95.3219 146.172C95.1952 146.223 95.0597 146.248 94.9232 146.245C92.9683 146.247 91.0739 146.923 89.561 148.158C88.0481 149.394 87.0097 151.113 86.6216 153.025C86.2335 154.937 86.5197 156.924 87.4315 158.65C88.3434 160.376 89.8249 161.734 91.6252 162.494C92.9138 163.038 94.3174 163.256 95.7105 163.126C97.1037 162.997 98.4431 162.525 99.6091 161.754C100.775 160.982 101.731 159.934 102.392 158.703C103.054 157.473 103.399 156.098 103.398 154.702C103.395 154.565 103.42 154.43 103.471 154.304C103.522 154.177 103.597 154.062 103.693 153.965C103.788 153.868 103.902 153.791 104.028 153.738C104.154 153.686 104.289 153.659 104.426 153.659C104.562 153.659 104.697 153.686 104.823 153.738C104.949 153.791 105.063 153.868 105.159 153.965C105.254 154.062 105.33 154.177 105.38 154.304C105.431 154.43 105.456 154.565 105.453 154.702C105.455 156.082 105.183 157.449 104.654 158.724C104.125 160 103.35 161.159 102.372 162.135C101.394 163.111 100.232 163.885 98.9543 164.412C97.6762 164.94 96.3064 165.211 94.9232 165.21Z" fill="black"/>
<path d="M94.9235 148.89C95.294 148.886 95.6548 149.009 95.9461 149.237C96.2374 149.466 96.4416 149.787 96.5249 150.147C96.5403 150.21 96.5704 150.269 96.6129 150.319C96.6553 150.368 96.7089 150.407 96.7693 150.432C96.8296 150.457 96.895 150.467 96.9601 150.462C97.0252 150.457 97.0882 150.437 97.144 150.403C97.3334 150.285 97.5451 150.207 97.7658 150.174C97.9866 150.141 98.2118 150.153 98.4276 150.21C98.6434 150.268 98.8452 150.368 99.0205 150.506C99.1959 150.644 99.341 150.816 99.4471 151.012C99.5899 151.265 99.6619 151.552 99.6553 151.842C99.6487 152.133 99.5639 152.416 99.4097 152.662C99.3758 152.718 99.3554 152.78 99.3504 152.845C99.3454 152.91 99.3558 152.976 99.3808 153.036C99.4058 153.096 99.4447 153.149 99.4943 153.192C99.5439 153.234 99.6028 153.264 99.6662 153.279C100.025 153.366 100.345 153.571 100.573 153.861C100.801 154.151 100.926 154.509 100.926 154.878C100.926 155.246 100.801 155.604 100.573 155.894C100.345 156.184 100.025 156.389 99.6662 156.476C99.6027 156.491 99.5438 156.521 99.4942 156.563C99.4445 156.606 99.4056 156.659 99.3806 156.719C99.3556 156.78 99.3452 156.845 99.3503 156.91C99.3553 156.975 99.3757 157.038 99.4097 157.093C99.564 157.34 99.6489 157.623 99.6555 157.913C99.6621 158.203 99.5902 158.49 99.4473 158.743C99.3414 158.939 99.1962 159.111 99.021 159.249C98.8457 159.387 98.6439 159.488 98.4282 159.545C98.2124 159.602 97.9872 159.615 97.7664 159.582C97.5457 159.549 97.334 159.471 97.1445 159.353C97.0888 159.319 97.0258 159.299 96.9607 159.294C96.8957 159.289 96.8303 159.299 96.77 159.324C96.7097 159.349 96.6562 159.388 96.6137 159.437C96.5713 159.487 96.5412 159.546 96.5258 159.609C96.4387 159.967 96.2334 160.286 95.943 160.514C95.6526 160.742 95.2939 160.866 94.9244 160.866C94.5549 160.866 94.1962 160.742 93.9057 160.514C93.6153 160.286 93.4101 159.967 93.323 159.609C93.3076 159.546 93.2775 159.487 93.235 159.437C93.1926 159.388 93.139 159.349 93.0787 159.324C93.0183 159.299 92.9529 159.289 92.8878 159.294C92.8227 159.299 92.7597 159.319 92.704 159.353C92.5145 159.471 92.3029 159.549 92.0821 159.582C91.8613 159.615 91.6361 159.602 91.4203 159.545C91.2045 159.488 91.0027 159.388 90.8274 159.25C90.652 159.112 90.5069 158.939 90.4009 158.743C90.258 158.49 90.1861 158.204 90.1926 157.914C90.1992 157.623 90.284 157.34 90.4382 157.094C90.4722 157.038 90.4925 156.975 90.4975 156.91C90.5025 156.846 90.4921 156.78 90.4671 156.72C90.4421 156.66 90.4032 156.607 90.3536 156.564C90.3041 156.522 90.2451 156.492 90.1817 156.476C89.8226 156.39 89.5033 156.185 89.2749 155.895C89.0465 155.605 88.9223 155.247 88.9223 154.878C88.9223 154.51 89.0465 154.152 89.2749 153.862C89.5033 153.572 89.8226 153.367 90.1817 153.28C90.2452 153.265 90.3041 153.235 90.3538 153.193C90.4034 153.15 90.4423 153.097 90.4673 153.036C90.4923 152.976 90.5027 152.911 90.4976 152.846C90.4926 152.781 90.4722 152.718 90.4382 152.663C90.284 152.416 90.1991 152.133 90.1924 151.843C90.1858 151.553 90.2577 151.266 90.4006 151.013C90.5065 150.817 90.6516 150.645 90.8269 150.507C91.0022 150.369 91.2039 150.268 91.4197 150.211C91.6354 150.154 91.8607 150.141 92.0814 150.174C92.3022 150.207 92.5139 150.285 92.7034 150.403C92.768 150.443 92.8425 150.464 92.9186 150.464C93.0117 150.464 93.1022 150.433 93.1754 150.375C93.2486 150.318 93.3002 150.237 93.3221 150.147C93.4054 149.787 93.6097 149.466 93.9009 149.237C94.1922 149.009 94.553 148.886 94.9235 148.89ZM96.9279 151.694C96.5583 151.694 96.1995 151.57 95.909 151.342C95.6185 151.114 95.4133 150.796 95.3262 150.437C95.3043 150.347 95.2527 150.267 95.1797 150.21C95.1067 150.152 95.0164 150.121 94.9235 150.121C94.8306 150.121 94.7404 150.152 94.6674 150.21C94.5943 150.267 94.5427 150.347 94.5208 150.437C94.4599 150.689 94.3403 150.922 94.1717 151.119C94.0031 151.316 93.7903 151.47 93.5506 151.569C93.311 151.668 93.0513 151.709 92.7926 151.689C92.534 151.669 92.2838 151.588 92.0624 151.454C91.9969 151.411 91.921 151.388 91.843 151.386C91.7674 151.389 91.6939 151.412 91.6296 151.452C91.5653 151.492 91.5124 151.548 91.4759 151.614C91.4395 151.676 91.4216 151.747 91.4244 151.82C91.4271 151.892 91.4505 151.962 91.4916 152.021C91.6266 152.242 91.7074 152.492 91.7274 152.75C91.7475 153.008 91.7061 153.267 91.6068 153.507C91.5075 153.746 91.353 153.958 91.1559 154.126C90.9587 154.295 90.7246 154.414 90.4724 154.475C90.3821 154.497 90.3018 154.549 90.2444 154.622C90.1869 154.694 90.1557 154.785 90.1557 154.877C90.1557 154.97 90.1869 155.06 90.2444 155.133C90.3018 155.206 90.3821 155.257 90.4724 155.279C90.7248 155.34 90.9592 155.46 91.1565 155.628C91.3538 155.797 91.5084 156.009 91.6077 156.249C91.707 156.488 91.7482 156.748 91.7279 157.006C91.7076 157.264 91.6264 157.514 91.491 157.735C91.4499 157.795 91.4266 157.865 91.4239 157.937C91.4212 158.009 91.4391 158.081 91.4756 158.143C91.5121 158.209 91.565 158.265 91.6292 158.305C91.6934 158.344 91.7668 158.367 91.8424 158.371C91.9202 158.369 91.9959 158.346 92.0613 158.303C92.2828 158.169 92.5331 158.088 92.7918 158.068C93.0505 158.048 93.3103 158.089 93.55 158.188C93.7897 158.288 94.0025 158.442 94.1712 158.638C94.3399 158.835 94.4597 159.069 94.5208 159.32C94.5427 159.411 94.5943 159.491 94.6674 159.548C94.7404 159.605 94.8306 159.637 94.9235 159.637C95.0164 159.637 95.1067 159.605 95.1797 159.548C95.2527 159.491 95.3043 159.411 95.3262 159.32C95.3874 159.069 95.5073 158.835 95.6761 158.639C95.8448 158.442 96.0577 158.288 96.2975 158.189C96.5372 158.09 96.797 158.049 97.0556 158.069C97.3143 158.089 97.5646 158.169 97.7861 158.304C97.8514 158.346 97.9272 158.37 98.005 158.371C98.0805 158.368 98.1539 158.345 98.2182 158.306C98.2824 158.266 98.3353 158.21 98.3717 158.144C98.4084 158.081 98.4264 158.01 98.4236 157.937C98.4208 157.865 98.3974 157.795 98.3561 157.735C98.221 157.514 98.1402 157.265 98.1202 157.006C98.1002 156.748 98.1415 156.489 98.2408 156.25C98.3401 156.011 98.4946 155.798 98.6918 155.63C98.8889 155.462 99.1231 155.342 99.3752 155.281C99.4655 155.259 99.5458 155.208 99.6033 155.135C99.6607 155.062 99.6919 154.972 99.6919 154.879C99.6919 154.786 99.6607 154.696 99.6033 154.624C99.5458 154.551 99.4655 154.499 99.3752 154.477C99.1232 154.416 98.8891 154.297 98.692 154.128C98.495 153.96 98.3405 153.748 98.2412 153.509C98.1419 153.27 98.1005 153.01 98.1205 152.752C98.1404 152.494 98.2212 152.245 98.3561 152.023C98.3972 151.964 98.4204 151.894 98.4232 151.822C98.4259 151.75 98.4079 151.678 98.3715 151.616C98.335 151.55 98.2821 151.494 98.2179 151.454C98.1536 151.414 98.0802 151.392 98.0047 151.388C97.9269 151.39 97.8511 151.413 97.7858 151.456C97.5273 151.612 97.2303 151.695 96.9279 151.694Z" fill="black"/>
<path d="M94.9235 157.286C94.4466 157.286 93.9804 157.144 93.5838 156.88C93.1873 156.616 92.8782 156.24 92.6957 155.8C92.5132 155.36 92.4654 154.877 92.5585 154.41C92.6515 153.943 92.8812 153.514 93.2184 153.178C93.5557 152.841 93.9853 152.612 94.4531 152.519C94.9209 152.426 95.4057 152.474 95.8463 152.656C96.287 152.838 96.6636 153.147 96.9285 153.542C97.1935 153.938 97.3349 154.403 97.3349 154.879C97.3342 155.517 97.0799 156.129 96.6278 156.58C96.1757 157.031 95.5628 157.285 94.9235 157.286ZM93.7453 154.879C93.7453 155.112 93.8144 155.339 93.9439 155.532C94.0734 155.726 94.2574 155.877 94.4727 155.965C94.6879 156.054 94.9248 156.078 95.1534 156.032C95.3819 155.987 95.5919 155.875 95.7566 155.711C95.9214 155.546 96.0336 155.337 96.0791 155.109C96.1245 154.881 96.1012 154.644 96.012 154.429C95.9229 154.214 95.7719 154.031 95.5781 153.902C95.3843 153.772 95.1566 153.704 94.9235 153.704C94.6112 153.704 94.3119 153.828 94.091 154.048C93.8702 154.269 93.746 154.567 93.7456 154.879L93.7453 154.879Z" fill="black"/>
<path d="M209.977 37.6821C217.798 37.6821 224.138 31.3555 224.138 23.5511C224.138 15.7468 217.798 9.42017 209.977 9.42017C202.156 9.42017 195.816 15.7468 195.816 23.5511C195.816 31.3555 202.156 37.6821 209.977 37.6821Z" fill="#F2F2F2"/>
<path d="M214.912 6.75925C213.63 6.59653 212.332 6.59653 211.05 6.75925C208.193 7.13331 205.504 8.31736 203.302 10.1709C201.099 12.0244 199.476 14.4696 198.624 17.2163C198.237 18.4679 198.017 19.7653 197.972 21.0745C197.965 21.2565 197.961 21.4405 197.961 21.6248C197.965 25.5988 199.548 29.4088 202.364 32.2188C205.18 35.0288 208.998 36.6092 212.98 36.613C213.3 36.613 213.619 36.6022 213.935 36.5831C214.675 36.5368 215.411 36.4352 216.136 36.2791C219.6 35.5373 222.69 33.5974 224.859 30.8023C227.029 28.0071 228.138 24.5366 227.992 21.0041C227.845 17.4717 226.452 14.1047 224.058 11.4981C221.664 8.89163 218.424 7.21342 214.911 6.7601L214.912 6.75925ZM217.682 35.4088H217.68C216.47 35.8206 215.212 36.0704 213.937 36.1517C213.621 36.173 213.302 36.1838 212.982 36.1838C209.114 36.1791 205.406 34.6437 202.671 31.9143C199.936 29.1849 198.397 25.4845 198.392 21.6246C198.392 21.4405 198.397 21.2562 198.403 21.0742C198.504 18.4231 199.329 15.8497 200.788 13.6322C202.248 11.4148 204.287 9.63741 206.685 8.49224C209.083 7.34706 211.749 6.87758 214.396 7.13452C217.042 7.39146 219.567 8.36504 221.699 9.9501C223.831 11.5352 225.488 13.6714 226.492 16.1281C227.496 18.5848 227.808 21.2685 227.395 23.8893C226.981 26.5101 225.858 28.9684 224.147 30.9985C222.435 33.0286 220.2 34.5535 217.683 35.4083L217.682 35.4088Z" fill="#090814"/>
<path d="M213.196 7.92163H212.767V10.9193H213.196V7.92163Z" fill="#090814"/>
<path d="M73.5371 122.246H64.1951C63.8784 122.247 63.5749 122.373 63.351 122.596C63.1271 122.82 63.001 123.123 63.0004 123.439V134.385C63.001 134.701 63.1271 135.004 63.351 135.227C63.5749 135.451 63.8784 135.577 64.1951 135.577H73.5371C73.8538 135.577 74.1573 135.451 74.3813 135.227C74.6052 135.004 74.7312 134.701 74.7319 134.385V123.439C74.7312 123.123 74.6052 122.82 74.3813 122.596C74.1573 122.373 73.8538 122.247 73.5371 122.246Z" fill="#D6D6E3"/>
<path d="M72.7146 122.59H63.3723C63.1468 122.59 62.9306 122.679 62.7711 122.839C62.6116 122.998 62.5219 123.213 62.5216 123.439V134.385C62.5219 134.61 62.6116 134.826 62.7711 134.985C62.9306 135.144 63.1468 135.234 63.3723 135.234H72.7143C72.9399 135.234 73.1562 135.144 73.3157 134.985C73.4751 134.826 73.5648 134.61 73.5651 134.385V123.439C73.5648 123.214 73.4752 122.998 73.3158 122.839C73.1563 122.679 72.9401 122.59 72.7146 122.59Z" fill="#D6D6E3"/>
<path d="M203.423 11.784L203.119 12.0869L205.243 14.2066L205.547 13.9037L203.423 11.784Z" fill="#090814"/>
<path d="M199.249 21.4103V21.8386H202.253V21.4103H199.249Z" fill="#090814"/>
<path d="M203.119 31.1627L203.423 31.4656L205.547 29.3459L205.243 29.0431L203.119 31.1627Z" fill="#090814"/>
<path d="M220.415 13.9029L220.719 14.2058L222.843 12.0862L222.539 11.7833L220.415 13.9029Z" fill="#090814"/>
<path d="M223.709 21.4103V21.8386H226.713V21.4103H223.709Z" fill="#090814"/>
<path d="M220.719 29.0421L220.416 29.345L222.54 31.4646L222.843 31.1618L220.719 29.0421Z" fill="#090814"/>
<path d="M213.196 32.3301H212.767V35.3277H213.196V32.3301Z" fill="#090814"/>
<path d="M213.624 20.7681C213.439 20.6291 213.213 20.554 212.981 20.554C212.749 20.554 212.523 20.6291 212.337 20.7681C212.21 20.8644 212.105 20.9872 212.03 21.1279C211.935 21.3089 211.894 21.5133 211.912 21.7169C211.929 21.9205 212.005 22.1148 212.13 22.2768C212.255 22.4388 212.424 22.5618 212.616 22.6312C212.809 22.7006 213.017 22.7135 213.217 22.6684C213.417 22.6234 213.599 22.5222 213.743 22.3768C213.887 22.2315 213.987 22.048 214.029 21.8482C214.072 21.6483 214.057 21.4404 213.985 21.249C213.913 21.0576 213.788 20.8907 213.624 20.7681ZM212.981 22.2669C212.81 22.2664 212.647 22.1986 212.526 22.0783C212.406 21.958 212.337 21.7949 212.337 21.6247C212.338 21.4948 212.378 21.368 212.451 21.2607C212.514 21.1698 212.599 21.0967 212.699 21.0484C212.798 21.0001 212.908 20.9782 213.019 20.9848C213.129 20.9915 213.236 21.0265 213.329 21.0864C213.422 21.1463 213.498 21.2291 213.549 21.3268C213.601 21.4246 213.626 21.5339 213.623 21.6442C213.619 21.7546 213.588 21.8622 213.531 21.9568C213.473 22.0513 213.393 22.1295 213.296 22.1838C213.2 22.2381 213.091 22.2668 212.981 22.2669Z" fill="#090814"/>
<path d="M214.912 2.99707H211.05V6.85105H214.912V2.99707Z" fill="#090814"/>
<path d="M212.981 3.63982C215.825 3.63982 218.13 2.82502 218.13 1.81991C218.13 0.814802 215.825 0 212.981 0C210.137 0 207.831 0.814802 207.831 1.81991C207.831 2.82502 210.137 3.63982 212.981 3.63982Z" fill="#090814"/>
<path d="M218.701 15.6747L217.687 14.8838L213.196 20.6202L214.21 21.4111L218.701 15.6747Z" fill="#090814"/>
<path d="M72.5402 121.347H63.1982C62.8815 121.348 62.578 121.474 62.3541 121.697C62.1302 121.92 62.0041 122.223 62.0035 122.539V133.486C62.0041 133.802 62.1302 134.105 62.3541 134.328C62.578 134.552 62.8815 134.678 63.1982 134.678H72.5402C72.8569 134.678 73.1604 134.552 73.3843 134.328C73.6083 134.105 73.7343 133.802 73.7349 133.486V122.539C73.7343 122.223 73.6083 121.92 73.3843 121.697C73.1604 121.474 72.8569 121.348 72.5402 121.347Z" fill="#E29578"/>
<path d="M72.5399 121.69H63.1976C62.9721 121.691 62.7559 121.78 62.5964 121.939C62.4369 122.099 62.3472 122.314 62.3469 122.539V133.486C62.3472 133.711 62.4369 133.927 62.5964 134.086C62.7559 134.245 62.9721 134.335 63.1976 134.335H72.5397C72.7652 134.335 72.9815 134.245 73.141 134.086C73.3004 133.927 73.3901 133.711 73.3904 133.486V122.539C73.3901 122.314 73.3005 122.099 73.1411 121.939C72.9816 121.78 72.7654 121.691 72.5399 121.69Z" fill="#E29578"/>
<path d="M110.951 127.974C110.951 128.245 110.918 128.462 110.878 128.462H78.9607C78.9202 128.462 78.888 128.245 78.888 127.974C78.888 127.703 78.9205 127.486 78.9607 127.486H110.877C110.918 127.486 110.951 127.703 110.951 127.974Z" fill="#D6D6E3"/>
<path d="M126.859 122.339H117.517C117.201 122.34 116.897 122.466 116.673 122.689C116.449 122.913 116.323 123.216 116.322 123.532V134.478C116.323 134.794 116.449 135.097 116.673 135.32C116.897 135.544 117.201 135.67 117.517 135.67H126.859C127.176 135.67 127.479 135.544 127.703 135.32C127.927 135.097 128.053 134.794 128.054 134.478V123.532C128.053 123.216 127.927 122.913 127.703 122.689C127.479 122.466 127.176 122.34 126.859 122.339Z" fill="#D6D6E3"/>
<path d="M126.859 122.683H117.517C117.291 122.683 117.075 122.772 116.915 122.932C116.756 123.091 116.666 123.307 116.666 123.532V134.478C116.666 134.703 116.756 134.919 116.915 135.078C117.075 135.237 117.291 135.327 117.517 135.327H126.859C127.084 135.327 127.3 135.237 127.46 135.078C127.619 134.919 127.709 134.703 127.709 134.478V123.532C127.709 123.307 127.619 123.091 127.46 122.932C127.301 122.772 127.084 122.683 126.859 122.683Z" fill="#D6D6E3"/>
<path d="M125.767 121.441H116.425C116.108 121.442 115.805 121.567 115.581 121.791C115.357 122.014 115.231 122.317 115.23 122.633V133.58C115.231 133.896 115.357 134.199 115.581 134.422C115.805 134.645 116.108 134.771 116.425 134.772H125.767C126.083 134.771 126.387 134.645 126.611 134.422C126.835 134.199 126.961 133.896 126.962 133.58V122.633C126.961 122.317 126.835 122.014 126.611 121.791C126.387 121.567 126.083 121.442 125.767 121.441Z" fill="#E29578"/>
<path d="M125.767 121.784H116.424C116.199 121.784 115.982 121.874 115.823 122.033C115.664 122.192 115.574 122.408 115.574 122.633V133.58C115.574 133.805 115.664 134.02 115.823 134.18C115.982 134.339 116.199 134.428 116.424 134.429H125.766C125.992 134.428 126.208 134.339 126.368 134.18C126.527 134.021 126.617 133.805 126.617 133.58V122.633C126.617 122.408 126.527 122.192 126.368 122.033C126.208 121.874 125.992 121.784 125.767 121.784Z" fill="#E29578"/>
</svg>
