<svg width="519" height="340" viewBox="0 0 519 340" fill="none" xmlns="http://www.w3.org/2000/svg">
<g clip-path="url(#clip0_57_7)">
<path d="M99.8436 340C154.986 340 199.687 337.717 199.687 334.9C199.687 332.083 154.986 329.8 99.8436 329.8C44.7015 329.8 0 332.083 0 334.9C0 337.717 44.7015 340 99.8436 340Z" fill="#E6E6E6"/>
<path d="M389.846 206.167L373.291 208.316L372.447 208.425L350.413 211.284L249.837 224.343C245.536 221.366 241.477 218.304 237.709 215.17L352.806 208.36L372.714 207.181L373.549 207.132L389.846 206.167Z" fill="#E6E6E6"/>
<path d="M316.815 124.979L229.369 136.333C231.907 134.172 234.556 131.956 237.317 129.684L316.815 124.979Z" fill="#E6E6E6"/>
<path d="M519 196.489C517.35 199.215 515.575 201.884 513.674 204.494L437.698 194.631L395.898 189.202L437.017 191.638L519 196.489Z" fill="#E6E6E6"/>
<path d="M483.312 234.259C455.347 254.31 417.98 266.553 376.934 266.553C343.36 266.553 304.771 255.041 272.985 238.307C275.499 231.783 279.001 226.496 283.871 223.818C283.992 223.749 284.117 223.681 284.242 223.62C286.322 222.55 288.618 221.968 290.956 221.92C319.603 221.112 316.376 253.425 352.285 208.994C374.618 181.362 399.916 171.854 417.21 174.928C417.528 174.984 417.843 175.045 418.158 175.109C428.18 177.194 435.35 183.616 437.42 193.241C443.069 219.496 426.526 240.5 456.787 234.037C465.543 232.213 474.588 232.289 483.312 234.259Z" fill="#E29578"/>
<path d="M398.476 265.481C384.403 257.627 375.642 246.904 372.436 233.611C370.055 223.741 370.739 212.634 374.469 200.599C377.233 191.726 381.378 183.345 386.75 175.765C415.251 135.378 417.824 109.062 414.963 94.0976C411.826 77.6891 401.635 70.8746 401.533 70.8077L401.973 70.1304C402.078 70.1989 412.537 77.1718 415.749 93.9132C417.601 103.565 416.73 114.57 413.16 126.623C408.717 141.624 400.053 158.314 387.409 176.231C382.086 183.742 377.979 192.047 375.239 200.839C369.123 220.577 368.258 247.692 398.869 264.776L398.476 265.481Z" fill="#3F3D56"/>
<path d="M373.58 189.083C362.485 182.892 362.794 173.079 365.006 165.938C365.987 162.788 367.459 159.813 369.366 157.122C379.35 142.974 380.253 133.783 379.252 128.564C378.164 122.896 374.676 120.57 374.64 120.547L375.08 119.87C375.235 119.97 378.892 122.41 380.044 128.411C381.543 136.227 378.173 146.043 370.025 157.589C368.167 160.21 366.733 163.109 365.777 166.177C363.653 173.033 363.35 182.45 373.972 188.378L373.58 189.083Z" fill="#3F3D56"/>
<path d="M423.497 102.645L423.104 101.939C433.726 96.0109 433.424 86.5941 431.299 79.7385C430.343 76.6699 428.91 73.7714 427.052 71.1499C418.904 59.6045 415.533 49.7877 417.033 41.9726C418.184 35.9708 421.841 33.5315 421.996 33.4307L422.437 34.1076C422.401 34.1309 418.895 36.4881 417.819 42.1568C416.829 47.3729 417.741 56.5561 427.711 70.6837C429.618 73.3745 431.089 76.3495 432.07 79.4991C434.283 86.6403 434.592 96.4527 423.497 102.645Z" fill="#3F3D56"/>
<path d="M447.186 62.4534C445.432 65.1455 442.682 67.03 439.541 67.6923C436.4 68.3547 433.124 67.7407 430.435 65.9854C427.746 64.2301 425.863 61.4772 425.202 58.3324C424.54 55.1876 425.153 51.9085 426.907 49.2164L426.91 49.2112C430.563 43.6062 448.953 37.5646 448.953 37.5646C448.953 37.5646 450.838 56.8484 447.186 62.4534Z" fill="#E29578"/>
<path d="M442.747 24.8888C440.994 27.5809 438.244 29.4654 435.103 30.1278C431.961 30.7902 428.686 30.1762 425.997 28.4208C423.307 26.6655 421.425 23.9127 420.763 20.7679C420.102 17.6231 420.715 14.344 422.468 11.6519L422.472 11.6466C426.125 6.04164 444.515 1.52588e-05 444.515 1.52588e-05C444.515 1.52588e-05 446.4 19.2839 442.747 24.8888Z" fill="#E29578"/>
<path d="M442.173 138.599C441.398 138.417 423.125 134.164 417.032 137.068C414.468 138.29 412.395 140.35 411.156 142.908C409.916 145.466 409.583 148.371 410.211 151.143C410.84 153.916 412.392 156.392 414.613 158.165C416.833 159.937 419.591 160.9 422.431 160.895C423.34 160.896 424.247 160.796 425.134 160.596C426.05 160.391 426.941 160.084 427.789 159.68C433.881 156.771 442.096 139.887 442.443 139.168L442.665 138.716L442.173 138.599ZM427.442 158.948C426.055 159.61 424.551 159.991 423.017 160.071C421.482 160.151 419.947 159.927 418.499 159.413C417.051 158.899 415.718 158.104 414.577 157.074C413.436 156.044 412.508 154.799 411.847 153.411C411.187 152.022 410.806 150.517 410.726 148.981C410.646 147.444 410.87 145.908 411.383 144.458C411.897 143.008 412.691 141.674 413.72 140.532C414.748 139.389 415.992 138.461 417.379 137.799C418.799 137.121 420.97 136.866 423.447 136.866C430.226 136.866 439.288 138.785 441.491 139.273C440.115 142.036 432.744 156.42 427.442 158.948Z" fill="#3F3D56"/>
<path d="M387.182 69.9778C384.065 69.9828 381.06 68.8186 378.76 66.7147C373.772 62.1623 370.812 43.6159 370.688 42.8286L370.61 42.3308L371.113 42.3627C371.907 42.4134 390.628 43.6571 395.615 48.2095C397.48 49.9108 398.788 52.1374 399.366 54.5965C399.943 57.0556 399.764 59.6322 398.852 61.9875C397.939 64.3428 396.336 66.3665 394.253 67.7927C392.17 69.2188 389.705 69.9806 387.182 69.9778ZM371.569 43.2057C372.085 46.2469 374.965 62.1576 379.303 66.1179C381.597 68.2097 384.626 69.3041 387.725 69.1604C390.825 69.0167 393.74 67.6467 395.83 65.3516C397.921 63.0565 399.015 60.0242 398.873 56.9216C398.73 53.8189 397.363 50.8999 395.071 48.8063C390.732 44.8464 374.642 43.4404 371.569 43.2057Z" fill="#3F3D56"/>
<path d="M370.327 98.9979C371.502 100.07 372.454 101.363 373.129 102.804C373.804 104.245 374.19 105.804 374.263 107.394C374.336 108.983 374.096 110.572 373.556 112.069C373.016 113.565 372.187 114.941 371.116 116.117C370.045 117.292 368.753 118.246 367.314 118.922C365.875 119.598 364.317 119.983 362.729 120.057C361.141 120.13 359.554 119.89 358.059 119.349C356.564 118.808 355.19 117.978 354.016 116.906C349.076 112.397 346.071 93.2559 346.071 93.2559C346.071 93.2559 365.387 94.4888 370.327 98.9979Z" fill="#E29578"/>
<path d="M407.425 99.443C407.091 97.9019 406.241 96.5211 405.017 95.5289C403.792 94.5367 402.266 93.9924 400.691 93.986C400.195 93.9878 399.7 94.042 399.214 94.1476C395.607 94.9312 389.196 102.796 388.926 103.127L388.607 103.519L389.059 103.745C389.414 103.922 397.136 107.752 401.179 107.752C401.502 107.756 401.824 107.724 402.14 107.659C403.928 107.27 405.49 106.186 406.481 104.646C407.472 103.105 407.812 101.234 407.425 99.443ZM405.803 104.209C405.372 104.886 404.811 105.47 404.152 105.927C403.493 106.384 402.75 106.705 401.966 106.871C399.069 107.501 391.782 104.153 389.878 103.244C391.233 101.628 396.487 95.5653 399.388 94.9352C400.567 94.6797 401.795 94.78 402.917 95.2234C404.039 95.6668 405.004 96.4333 405.691 97.4261C406.378 98.4189 406.755 99.5932 406.775 100.801C406.795 102.008 406.457 103.194 405.803 104.209Z" fill="#3F3D56"/>
<path d="M94.3312 199.353L115.419 178.243C116.106 177.555 116.959 177.059 117.896 176.803C118.833 176.547 119.82 176.54 120.76 176.782C121.701 177.024 122.562 177.508 123.258 178.185C123.955 178.863 124.463 179.71 124.732 180.644C125.009 181.604 125.024 182.622 124.775 183.59C124.526 184.558 124.022 185.441 123.316 186.148L109.853 199.626L128.643 214.619L128.633 214.634C128.727 214.629 128.82 214.619 128.915 214.619C130.045 214.619 131.15 214.954 132.09 215.582C133.03 216.21 133.763 217.102 134.197 218.147C134.63 219.191 134.745 220.341 134.527 221.451C134.309 222.561 133.767 223.581 132.969 224.383C132.172 225.184 131.156 225.732 130.048 225.956C128.94 226.18 127.791 226.07 126.746 225.641C125.701 225.211 124.806 224.482 124.174 223.544C123.543 222.606 123.203 221.501 123.198 220.37L94.3312 199.353Z" fill="#A0616A"/>
<path d="M156.608 329.742L162.863 327.404L156.833 302.138L147.6 305.588L156.608 329.742Z" fill="#A0616A"/>
<path d="M177.095 328.71L157.436 336.057L154.6 328.453L166.933 323.844C168.876 323.118 171.028 323.194 172.915 324.056C174.802 324.918 176.27 326.495 176.995 328.441L177.095 328.71Z" fill="#2F2E41"/>
<path d="M100.332 327.733L107.009 327.732L110.186 301.95L100.331 301.95L100.332 327.733Z" fill="#A0616A"/>
<path d="M119.887 333.938L98.9019 333.939L98.9016 325.823L112.066 325.822C114.14 325.822 116.129 326.647 117.596 328.115C119.063 329.583 119.887 331.575 119.887 333.651L119.887 333.938Z" fill="#2F2E41"/>
<path d="M117.205 206.986C117.205 206.986 133.544 204.26 138.991 210.803L162.137 317.938L149.066 319.574C149.066 319.574 144.709 263.962 122.924 249.241C122.924 249.241 107.13 298.31 109.853 320.664L98.4159 319.574C98.4159 319.574 94.8758 225.524 117.205 206.986Z" fill="#2F2E41"/>
<path d="M151.155 245.656L153.029 243.194L152.722 242.959L153.985 241.299C154.281 240.911 154.497 240.468 154.622 239.996C154.746 239.524 154.777 239.032 154.712 238.549C154.647 238.065 154.487 237.599 154.242 237.177C153.996 236.755 153.67 236.385 153.283 236.089L148.736 232.621C148.348 232.325 147.906 232.109 147.435 231.984C146.963 231.859 146.472 231.828 145.989 231.894C145.505 231.959 145.04 232.119 144.618 232.364C144.197 232.61 143.828 232.936 143.532 233.324L132.804 247.417C132.509 247.806 132.292 248.248 132.168 248.72C132.043 249.192 132.012 249.684 132.078 250.168C132.143 250.652 132.303 251.118 132.548 251.54C132.793 251.962 133.119 252.331 133.507 252.627L138.053 256.095C138.837 256.693 139.825 256.955 140.801 256.823C141.777 256.691 142.661 256.176 143.257 255.392L148.27 248.807L148.577 249.042L150.452 246.579L150.144 246.345L150.847 245.422L151.155 245.656Z" fill="#E6E6E6"/>
<path d="M147.495 240.907C148.562 240.907 149.428 240.04 149.428 238.972C149.428 237.903 148.562 237.037 147.495 237.037C146.427 237.037 145.562 237.903 145.562 238.972C145.562 240.04 146.427 240.907 147.495 240.907Z" fill="white"/>
<path d="M121.161 164.499C128.287 164.499 134.064 158.716 134.064 151.583C134.064 144.449 128.287 138.666 121.161 138.666C114.035 138.666 108.258 144.449 108.258 151.583C108.258 158.716 114.035 164.499 121.161 164.499Z" fill="#A0616A"/>
<path d="M108.491 175.909C108.491 175.909 120.473 161.733 130.277 173.183C136.584 180.55 139.92 190.007 139.633 199.706L139.263 212.166L116.661 208.622L108.491 175.909Z" fill="#CCCCCC"/>
<path d="M125.615 172.269C124.764 172.281 123.925 172.477 123.157 172.846C122.389 173.215 121.71 173.747 121.168 174.405C120.627 175.063 120.235 175.831 120.02 176.656C119.804 177.481 119.772 178.343 119.923 179.182L132.289 247.694L132.22 247.788C131.727 248.461 131.39 249.236 131.234 250.055C131.077 250.875 131.106 251.72 131.317 252.527C131.528 253.335 131.916 254.085 132.454 254.723C132.991 255.362 133.664 255.872 134.423 256.217C135.658 256.762 137.047 256.85 138.341 256.465C139.634 256.08 140.749 255.246 141.486 254.114C142.217 252.972 142.508 251.603 142.305 250.262C142.101 248.921 141.417 247.699 140.381 246.826L140.3 246.758L131.509 177.399C131.33 175.982 130.64 174.679 129.57 173.734C128.499 172.789 127.121 172.268 125.694 172.269C125.668 172.269 125.641 172.269 125.615 172.269Z" fill="#A0616A"/>
<path d="M123.252 153.817L128.796 147.279C130.225 145.594 131.719 143.759 131.921 141.558C132.142 139.146 130.677 136.801 128.673 135.443C126.669 134.084 124.208 133.573 121.795 133.386C117.32 133.038 112.611 133.778 108.933 136.353C105.254 138.927 102.847 143.575 103.744 147.977C104.451 151.444 107.053 154.765 106.042 158.155C104.935 161.864 100.396 163.002 96.6901 164.108C90.4698 165.965 84.5303 169.62 81.2705 175.239C78.0106 180.858 78.0249 188.606 82.3703 193.433C85.1841 196.558 89.428 198.139 93.6243 198.377C97.8205 198.614 101.997 197.625 105.977 196.272C109.642 195.025 113.268 193.422 116.153 190.84C119.038 188.257 121.117 184.56 121.027 180.687C120.941 176.995 118.966 173.632 118.154 170.029C117.514 167.013 117.682 163.88 118.641 160.95C119.6 158.019 121.316 155.395 123.615 153.342" fill="#2F2E41"/>
<path d="M114.443 132.469L117.935 131.783C118.224 131.726 118.521 131.727 118.809 131.785C119.098 131.843 119.372 131.958 119.616 132.122C119.86 132.286 120.069 132.497 120.232 132.742C120.395 132.987 120.508 133.262 120.565 133.551L125.393 149.772L117.506 151.321L112.677 135.101C112.562 134.517 112.684 133.912 113.016 133.418C113.347 132.925 113.86 132.583 114.443 132.469Z" fill="#E29578"/>
<path d="M122.127 158.976C125.635 158.976 128.478 156.129 128.478 152.618C128.478 149.106 125.635 146.259 122.127 146.259C118.619 146.259 115.776 149.106 115.776 152.618C115.776 156.129 118.619 158.976 122.127 158.976Z" fill="white"/>
<path d="M122.127 156.15C124.076 156.15 125.656 154.569 125.656 152.618C125.656 150.667 124.076 149.085 122.127 149.085C120.178 149.085 118.599 150.667 118.599 152.618C118.599 154.569 120.178 156.15 122.127 156.15Z" fill="#E29578"/>
</g>
<defs>
<clipPath id="clip0_57_7">
<rect width="519" height="340" fill="white"/>
</clipPath>
</defs>
</svg>
